<svg id="Lager_1" data-name="Lager 1" xmlns="http://www.w3.org/2000/svg" viewBox="0 0 254.53 53.15">
  <defs>
    <style>
      .cls-1 {
        fill: #fff;
        stroke: #1d1d1b;
        stroke-width: 1.6px;
      }
    </style>
  </defs>
  <path class="cls-1" d="M4.04,37.81c3.31,0,3.89,1.08,3.89,2.23,0,1.51-.43,1.44-.43,3.17s1.58,3.17,4.25,3.17c3.89,0,5.18-2.88,5.18-6.55,0-12.75-15.77-11.74-15.77-27C1.16,4.69,6.7.87,12.46.87s9.58,4.18,9.58,9.58c0,2.45-.43,4.03-3.46,4.03-1.66,0-3.24-.79-3.24-2.23s.65-1.3.65-2.88c0-.94-.86-2.52-3.82-2.52-2.52,0-4.75,2.02-4.75,5.54,0,11.52,15.77,10.58,15.77,26.93,0,9.22-5.76,13.03-11.52,13.03-6.55,0-10.87-4.61-10.87-10.37,0-2.16.58-4.18,3.24-4.18Z"/>
  <path class="cls-1" d="M25.78,20.38c0-2.59.94-3.1,1.94-3.1.86,0,1.37.14,2.09.22.65-9.58,2.88-16.71,10.15-16.71,9,0,11.38,9.72,11.38,18.87,0,2.66-.72,3.31-1.87,3.31l-13.39.14v5.9c0,10.15.58,17.93,4.97,17.93,2.3,0,3.96-1.94,3.96-5.33,0-1.37-.14-2.16-.14-3.6,0-1.66,1.01-2.81,3.46-2.81,2.3,0,3.02,1.08,3.02,2.81,0,1.15-.36,2.09-.36,3.6,0,5.62-3.89,10.73-9.72,10.73-11.02,0-11.67-14.98-11.67-25.85v-3.24c-.5.07-1.08.14-1.87.14-1.08,0-1.94-.58-1.94-3.02ZM45.01,17.22c0-7.27-1.58-11.16-4.68-11.16-2.66,0-3.67,2.81-4.03,11.31l8.71-.14Z"/>
  <path class="cls-1" d="M57.97,49.26c0-1.22.58-3.1.58-4.68v-6.84c-.94.29-2.23-.58-2.38-2.38-.07-2.02.94-2.74,2.02-3.74,0,0,.22-.14.29-.36l-.07-22.32c0-1.58-.5-3.6-.5-4.82,0-1.08.65-2.95,4.03-2.95,2.88,0,3.31,1.58,3.31,2.66,0,1.15-.5,2.23-.5,3.6l-.07,19.23c5.11-9.22,10.44-19.01,10.58-21.53.07-1.8,1.08-3.89,3.31-3.89,2.81,0,3.67,1.15,3.67,2.88s-.65,2.38-1.44,4.1c-.5,1.08-4.9,10.01-9.5,18.72l8.64,17.28c1.3,2.52,4.1,3.02,4.1,5.62,0,1.01-.79,2.45-4.18,2.45-2.59,0-3.31-1.73-4.25-3.53l-8.57-17.21c-.72,1.22-1.58,2.38-2.3,3.46v10.94c0,1.37.58,2.16.58,3.31,0,1.51-.5,2.95-3.38,2.95-3.38,0-3.96-1.44-3.96-2.95Z"/>
  <path class="cls-1" d="M93.03,3.75c0,1.73-.29,2.74,0,4.32l5.18,29.81,5.83-29.31c.43-2.38.07-2.81.07-5.04,0-1.66,1.22-2.52,3.89-2.52,3.02,0,3.96,1.3,3.96,2.52,0,1.8-.72,1.94-1.37,4.75l-9.14,40.47c-.36,1.37-1.01,3.38-3.38,3.38s-3.24-2.16-3.53-3.6l-7.99-40.68c-.36-1.8-1.3-2.3-1.3-4.1,0-1.15.58-2.74,4.32-2.74,2.81,0,3.46,1.66,3.46,2.74Z"/>
  <path class="cls-1" d="M113.41,20.38c0-2.59.94-3.1,1.94-3.1.86,0,1.37.14,2.09.22.65-9.58,2.88-16.71,10.15-16.71,9,0,11.38,9.72,11.38,18.87,0,2.66-.72,3.31-1.87,3.31l-13.39.14v5.9c0,10.15.58,17.93,4.97,17.93,2.3,0,3.96-1.94,3.96-5.33,0-1.37-.14-2.16-.14-3.6,0-1.66,1.01-2.81,3.46-2.81,2.3,0,3.02,1.08,3.02,2.81,0,1.15-.36,2.09-.36,3.6,0,5.62-3.89,10.73-9.72,10.73-11.02,0-11.67-14.98-11.67-25.85v-3.24c-.5.07-1.08.14-1.87.14-1.08,0-1.94-.58-1.94-3.02ZM132.63,17.22c0-7.27-1.58-11.16-4.68-11.16-2.67,0-3.67,2.81-4.03,11.31l8.71-.14Z"/>
  <path class="cls-1" d="M169.42,49.69c0,1.08-.65,2.52-3.38,2.52-3.74,0-4.1-1.94-4.1-3.02,0-1.58.43-3.02.43-4.39v-21.31c0-7.7,0-17.07-5.11-17.07-3.96,0-5.62,3.46-5.47,10.58l.36,27.43c0,1.58.5,3.6.5,5.26,0,1.08-.65,2.52-3.67,2.52-3.31,0-3.74-1.15-3.74-2.23,0-1.58.5-2.66.5-4.03l-.36-38.45c0-1.37-.79-1.8-.79-3.38,0-1.37.94-2.95,3.89-2.95,1.87,0,2.66.72,3.17,1.51l.58.94c1.37-1.44,3.38-2.81,6.77-2.81,7.56,0,9.65,6.62,9.72,19.01l.14,26.14c0,1.58.58,2.09.58,3.74Z"/>
  <path class="cls-1" d="M177.92,37.81c3.31,0,3.89,1.08,3.89,2.23,0,1.51-.43,1.44-.43,3.17s1.58,3.17,4.25,3.17c3.89,0,5.18-2.88,5.18-6.55,0-12.75-15.77-11.74-15.77-27,0-8.14,5.54-11.95,11.3-11.95s9.58,4.18,9.58,9.58c0,2.45-.43,4.03-3.46,4.03-1.66,0-3.24-.79-3.24-2.23s.65-1.3.65-2.88c0-.94-.86-2.52-3.82-2.52-2.52,0-4.75,2.02-4.75,5.54,0,11.52,15.77,10.58,15.77,26.93,0,9.22-5.76,13.03-11.52,13.03-6.55,0-10.87-4.61-10.87-10.37,0-2.16.58-4.18,3.24-4.18Z"/>
  <path class="cls-1" d="M199.66,20.38c0-2.59.94-3.1,1.94-3.1.86,0,1.37.14,2.09.22.65-9.58,2.88-16.71,10.15-16.71,9,0,11.38,9.72,11.38,18.87,0,2.66-.72,3.31-1.87,3.31l-13.39.14v5.9c0,10.15.58,17.93,4.97,17.93,2.3,0,3.96-1.94,3.96-5.33,0-1.37-.14-2.16-.14-3.6,0-1.66,1.01-2.81,3.46-2.81,2.3,0,3.02,1.08,3.02,2.81,0,1.15-.36,2.09-.36,3.6,0,5.62-3.89,10.73-9.72,10.73-11.02,0-11.67-14.98-11.67-25.85v-3.24c-.5.07-1.08.14-1.87.14-1.08,0-1.94-.58-1.94-3.02ZM218.89,17.22c0-7.27-1.58-11.16-4.68-11.16-2.67,0-3.67,2.81-4.03,11.31l8.71-.14Z"/>
  <path class="cls-1" d="M253.74,13.33c0,1.22-.72,2.52-3.6,2.59-2.3,0-3.38-1.22-3.1-3.02.07-.72.43-1.51.36-3.02,0-1.58-1.3-3.31-4.39-3.31-3.53,0-5.33,2.88-5.26,10.01l.43,27.43c0,1.58.5,4.03.5,5.26,0,1.08-.5,2.95-3.6,2.95-3.31,0-3.75-1.58-3.75-2.66,0-1.15.5-2.66.5-4.03l-.22-37.66c0-1.66-.79-2.16-.79-3.74s1.08-2.95,3.74-2.95c1.94,0,2.59.58,3.31,1.94l.5.79c1.44-1.8,3.17-3.1,7.06-3.1,5.4,0,7.92,4.54,7.92,8.35,0,2.52.36,3.02.36,4.18Z"/>
</svg>